<svg xmlns="http://www.w3.org/2000/svg"
     width="32"
     height="32"
     viewBox="0 0 32 32">
  <path d="M13.28 7.21 11.87 5.8l4.14-4.14 4.14 4.14-1.41 1.41-1.72-1.72V10h-2V5.49L13.3 7.21ZM6 10.41l2.89 2.89 1.41-1.41L7.41 9H10V7H4v6h2v-2.59ZM22 7v2h2.59l-2.85 2.85 1.41 1.41L26 10.41V13h2V7h-6Zm-5 19h9v2H6v-2h9v-2.62c-.5-.11-.96-.31-1.39-.58l-1.86 1.86-1.41-1.41 1.86-1.86a4.5 4.5 0 0 1-.58-1.39H9v-2h2.62c.11-.5.31-.96.58-1.39l-1.86-1.86 1.41-1.41 1.86 1.86a4.5 4.5 0 0 1 1.39-.58V12h2v2.62c.5.11.96.31 1.39.58l1.86-1.86 1.41 1.41-1.86 1.86c.27.42.46.89.58 1.39H23v2h-2.62c-.11.5-.31.96-.58 1.39l1.86 1.86-1.41 1.41-1.86-1.86a4.5 4.5 0 0 1-1.39.58V26Zm-1-4.5a2.5 2.5 0 0 0 0-5 2.5 2.5 0 0 0 0 5Z"/>
</svg>

