<svg data-name="&amp;lt;Ebene&amp;gt;" viewbox="0 0 32 32" xmlns="http://www.w3.org/2000/svg"><path d="M27 24c-.44 0-.86.1-1.24.28l-1.98-1.98c1.39-1.71 2.22-3.89 2.22-6.27s-.86-4.61-2.28-6.34l1.99-1.99c.39.19.82.3 1.29.3 1.65 0 3-1.35 3-3s-1.35-3-3-3-3 1.35-3 3c0 .46.11.89.3 1.29l-2 2c-1.72-1.39-3.9-2.23-6.27-2.23s-4.61.86-6.34 2.28L7.68 6.33c.2-.4.32-.84.32-1.32 0-1.65-1.35-3-3-3s-3 1.35-3 3 1.35 3 3 3c.45 0 .87-.11 1.25-.28l2.03 2.03a9.927 9.927 0 0 0 0 12.54l-2 2c-.39-.19-.82-.3-1.29-.3-1.65 0-3 1.35-3 3s1.35 3 3 3 3-1.35 3-3c0-.46-.11-.89-.3-1.29l1.99-1.99C11.4 25.14 13.61 26 16.02 26s4.62-.86 6.34-2.28l1.95 1.95c-.2.4-.33.85-.33 1.33 0 1.65 1.35 3 3 3s3-1.35 3-3-1.35-3-3-3ZM8.05 16.03c0-1.13.24-2.21.67-3.18.68.32 1.46.6 2.3.81a20.132 20.132 0 0 0 0 4.73c-.85.22-1.63.49-2.31.81-.42-.97-.66-2.04-.66-3.17Zm15.95 0c0 1.12-.24 2.19-.66 3.17-.68-.32-1.46-.59-2.31-.81a20.132 20.132 0 0 0 0-4.73c.85-.22 1.62-.5 2.3-.82.43.98.67 2.05.67 3.19Zm-11.11 0c0-.7.04-1.36.11-1.98.97.14 1.99.22 3.03.22s2.06-.08 3.03-.22a17.635 17.635 0 0 1 0 3.95c-.97-.13-1.98-.21-3.04-.21s-2.06.08-3.03.22c-.07-.62-.11-1.28-.11-1.98Zm7.79-4.35c-.24-1.02-.56-1.93-.96-2.71 1 .53 1.88 1.26 2.57 2.15-.48.22-1.02.41-1.61.57Zm-1.96.4c-.86.12-1.77.19-2.7.19s-1.84-.07-2.7-.19c.62-2.56 1.78-4.03 2.7-4.03s2.07 1.47 2.7 4.02Zm-7.35-.39c-.59-.16-1.13-.35-1.61-.57.69-.89 1.57-1.62 2.57-2.15-.4.78-.72 1.7-.96 2.72Zm0 8.67c.24 1.02.56 1.94.96 2.73a7.929 7.929 0 0 1-2.58-2.16c.48-.22 1.03-.4 1.62-.56Zm1.96-.39c.86-.12 1.76-.18 2.7-.18s1.84.07 2.7.18c-.62 2.56-1.79 4.03-2.7 4.03s-2.07-1.47-2.7-4.03Zm7.36.39c.59.16 1.14.35 1.62.56-.7.89-1.57 1.63-2.58 2.16.4-.78.72-1.7.96-2.73ZM27 4c.55 0 1 .45 1 1s-.45 1-1 1-1-.45-1-1 .45-1 1-1ZM5 6c-.55 0-1-.45-1-1s.45-1 1-1 1 .45 1 1-.45 1-1 1Zm0 22c-.55 0-1-.45-1-1s.45-1 1-1 1 .45 1 1-.45 1-1 1Zm22 0c-.55 0-1-.45-1-1s.45-1 1-1 1 .45 1 1-.45 1-1 1Z"></path></svg>