<svg viewbox="0 0 32 32" xmlns="http://www.w3.org/2000/svg"><path d="M30 14c0-1.65-1.35-3-3-3s-3 1.35-3 3c0 1.3.84 2.4 2 2.82V17c0 1.65-1.35 3-3 3-1.12 0-2.16.37-3 1v-4.19c1.16-.41 2-1.51 2-2.82 0-1.65-1.35-3-3-3s-3 1.35-3 3c0 1.3.84 2.4 2 2.82v7.37c-1.16.41-2 1.51-2 2.82 0 1.65 1.35 3 3 3s3-1.35 3-3c0-1.26-.78-2.34-1.88-2.78.35-1.27 1.5-2.22 2.88-2.22 2.76 0 5-2.24 5-5v-.18c1.16-.41 2-1.51 2-2.82Zm-11-1c.55 0 1 .45 1 1s-.45 1-1 1-1-.45-1-1 .45-1 1-1Zm0 15c-.55 0-1-.45-1-1s.45-1 1-1 1 .45 1 1-.45 1-1 1Zm8-13c-.55 0-1-.45-1-1s.45-1 1-1 1 .45 1 1-.45 1-1 1Zm-11 8H8.2C4.78 23 2 20.26 2 16.9c0-3.06 2.31-5.61 5.3-6.04C7.96 6.95 11.43 4 15.57 4c3.28 0 6.27 1.9 7.62 4.84l-1.82.83c-1.02-2.23-3.3-3.68-5.8-3.68-3.38 0-6.18 2.57-6.37 5.86l-.05.94h-.94c-2.32 0-4.2 1.84-4.2 4.1s1.88 4.1 4.2 4.1h7.8v2Z"></path></svg>