<svg viewbox="0 0 32 32" xmlns="http://www.w3.org/2000/svg"><path d="M22.31 9.99c-.49-.49-.49-1.28 0-1.77s1.28-.49 1.77 0 .49 1.28 0 1.77-1.28.49-1.77 0Zm4.15 9.8-.94 1.26 1.27 1.78-1.28 1.76 1.35 1.89-3.67 3.67-3.53-3.53v-1.17c-.19.07-.38.16-.58.22v4.47h-6v-4.47c-.56-.18-1.1-.4-1.62-.67L8.3 28.16l-4.24-4.24 3.16-3.16c-.27-.52-.5-1.06-.67-1.62H2.08v-6h4.47c.17-.56.4-1.1.67-1.62L4.06 8.36 8.3 4.12l3.16 3.16c.52-.27 1.06-.5 1.62-.67V2.15h6v3.32a6.893 6.893 0 0 1 4.11-1.36c3.81 0 6.91 3.1 6.91 6.91 0 2.43-1.31 4.7-3.38 5.93v2.58l-.26.26Zm-9.8-6.59c-1.38-.27-2.8.47-3.35 1.81a3.01 3.01 0 0 0 3.95 3.9 2.96 2.96 0 0 0 1.61-1.63c.1-.24.15-.5.19-.75a6.904 6.904 0 0 1-2.39-3.32Zm3 10.06v-3.64c-.94.97-2.23 1.53-3.58 1.53-.63 0-1.26-.12-1.88-.37a5.012 5.012 0 0 1-2.75-6.52c.82-2 2.79-3.18 4.84-3.09 0-.05-.01-.11-.01-.16 0-1.17.29-2.27.81-3.23V4.15h-2v4.03l-.78.18c-.87.2-1.71.54-2.47 1.03l-.68.43-2.85-2.85L6.9 8.38l2.85 2.85-.42.68c-.48.77-.83 1.6-1.03 2.47l-.18.78H4.09v2h4.03l.18.78c.2.87.54 1.71 1.03 2.47l.42.67-2.85 2.85 1.41 1.42 2.85-2.85.68.43c.77.48 1.6.83 2.47 1.03l.78.18v4.03h2v-4.03l.78-.18c.63-.14 1.22-.39 1.8-.68Zm3.39 1.33 1.28-1.76-1.28-1.8 1.68-2.26v-3.06l.57-.27a4.926 4.926 0 0 0 2.81-4.43c0-2.71-2.2-4.91-4.91-4.91s-4.91 2.2-4.91 4.91c0 1.88 1.1 3.62 2.81 4.43l.57.27v10.08l1.53 1.53 1.06-1.06-1.2-1.68Zm2.65-5.48h-.03l.14.1-.11-.1Z"></path></svg>