<svg viewbox="0 0 32 32" xmlns="http://www.w3.org/2000/svg"><path d="M8 17v-2h2v2H8Zm6 0v-2h-2v2h2Zm-4 8v-2H8v2h2Zm4 0v-2h-2v2h2Zm-7 2h10v2H7c-1.65 0-3-1.35-3-3v-4c0-.77.3-1.47.78-2-.48-.53-.78-1.23-.78-2v-4c0-.77.3-1.47.78-2-.48-.53-.78-1.23-.78-2V6c0-1.65 1.35-3 3-3h18c1.65 0 3 1.35 3 3v4c0 .77-.3 1.47-.78 2 .48.53.78 1.23.78 2v2h-2v-2c0-.55-.45-1-1-1H7c-.55 0-1 .45-1 1v4c0 .55.45 1 1 1h7v2H7c-.55 0-1 .45-1 1v4c0 .55.45 1 1 1ZM6 10c0 .55.45 1 1 1h18c.55 0 1-.45 1-1V6c0-.55-.45-1-1-1H7c-.55 0-1 .45-1 1v4Zm4-3H8v2h2V7Zm4 0h-2v2h2V7Zm14.29 22.71-3.68-3.68c-.89.61-1.96.97-3.11.97-3.03 0-5.5-2.47-5.5-5.5s2.47-5.5 5.5-5.5 5.5 2.47 5.5 5.5c0 1.16-.36 2.23-.97 3.11l3.68 3.68-1.41 1.41ZM21.5 25c1.93 0 3.5-1.57 3.5-3.5S23.43 18 21.5 18 18 19.57 18 21.5s1.57 3.5 3.5 3.5Z"></path></svg>